<svg xmlns="http://www.w3.org/2000/svg" width="176" height="44" viewBox="0 0 176 44">
    <defs>
        <linearGradient id="a" x1="87.293%" x2="13.559%" y1="0%" y2="100%">
            <stop offset="0%" stop-color="#6572F1"/>
            <stop offset="100%" stop-color="#353EDF"/>
        </linearGradient>
    </defs>
    <g fill="none" fill-rule="evenodd">
        <path fill="url(#a)" d="M12.465 31.959l.029.025C13.466 32.802 26.5 43.76 26.945 44H15.484c-1.682 0-3.044-1.426-3.04-3.182l.021-8.859zm.55-9.959c12.745 5.748 22.912 21.29 22.912 21.29C22.487 30.217 6.91 26.11 6.91 26.11h6.106zm-.267-12.774s19.431 12.368 24.561 23.42c0 0-15.345-13.982-32.473-17.775l7.999.573-.087-6.218zM0 .079c7.325-.53 14.97 1.767 14.97 1.767l21.17.478c1.034.023 1.86.886 1.86 1.942V22C25.156 4.673 0 .08 0 .08z"/>
        <path fill="#13073E" fill-rule="nonzero" d="M62.875 34c1.937 0 4.72-.975 5.706-3.03l.211 2.508h4.05V16.312h-4.12l-.141 2.368c-.986-1.741-3.276-2.786-5.6-2.786-5.036 0-8.981 3.099-8.981 8.983C54 30.867 57.768 34 62.875 34zm.564-3.9c-2.853 0-5.142-1.95-5.142-5.223 0-3.273 2.289-5.188 5.142-5.188 3.38 0 5.071 2.612 5.071 5.188 0 2.612-1.69 5.223-5.071 5.223zm15.18-16.156c1.267 0 2.535-.835 2.535-2.472C81.154 9.801 79.886 9 78.618 9s-2.535.8-2.535 2.472c0 1.637 1.267 2.472 2.535 2.472zm2.148 19.534V16.242H76.47v17.236h4.297zm8.17 0v-9.053c0-3.169 2.079-4.353 4.333-4.353 1.408 0 2.218.383 3.099 1.115l1.937-3.691c-.95-.94-2.677-1.637-4.473-1.637-1.76 0-3.557.314-4.895 2.438l-.317-1.985h-3.98v17.166h4.297zm19.054 0l7.29-17.2h-1.901l-6.34 15.215-6.34-15.216h-1.9l7.29 17.2h1.901zm17.997.243c2.783 0 5.812-1.114 7.502-3.307l-1.232-.975c-1.304 1.706-3.98 2.611-6.27 2.611-3.592 0-6.726-2.333-7.079-6.372h15.673c.035-.452.07-.905.07-1.323 0-5.78-4.12-8.356-8.664-8.356-4.895 0-8.84 3.725-8.84 8.878 0 5.467 3.945 8.844 8.84 8.844zm7.044-9.54H118.91c.388-4.213 3.487-6.616 7.08-6.616 4.19 0 7.008 2.368 7.043 6.616zm7.749 9.297v-9.575c0-3.587 2.535-6.268 6.198-6.268 3.698 0 6.093 2.09 6.093 5.954v9.889h1.726v-9.924c0-4.77-3.205-7.59-7.854-7.59-2.43.035-4.86 1.01-6.199 3.377v-3.064h-1.69v17.2h1.726zm26.273.278c2.959 0 5.811-1.462 7.255-4.074v3.796H176V9.104h-1.69v10.934c-1.41-2.786-4.227-4.04-7.22-4.04-4.86 0-8.735 3.204-8.735 8.88 0 5.71 3.839 8.878 8.7 8.878zm.106-1.671c-3.91 0-7.114-2.437-7.114-7.208 0-4.84 3.205-7.242 7.114-7.242 4.015 0 7.114 2.925 7.114 7.208 0 4.282-3.029 7.242-7.114 7.242z"/>
    </g>
</svg>
